{"title":"Doraemon In Nobita's Little Space War SDTVRip by HarryLala.avi","uid":6613772,"size":754945556,"categoryP":"video","categoryS":"movies","magnet":"?xt=urn:btih:5e40f1fa28b5b29b5d52739328ae968f0ad4ca7a&amp;dn=Doraemon+In+Nobita%5C%27s+Little+Space+War+SDTVRip+by+HarryLala.avi&amp;tr=udp%3A%2F%2Ftracker.openbittorrent.com%3A80&amp;tr=udp%3A%2F%2Fopen.demonii.com%3A1337&amp;tr=udp%3A%2F%2Ftracker.coppersurfer.tk%3A6969&amp;tr=udp%3A%2F%2Fexodus.desync.com%3A6969","seeders":0,"leechers":1,"uploader":"harrylala","files":1,"time":1313694486,"description":"General\nComplete name                    : Doraemon In Nobita's Little Space War SDTVRip by   HarryLala.avi\nFormat                           : AVI\nFormat/Info                      : Audio Video Interleave\nFile size                        : 720 MiB\nDuration                         : 1h 33mn\nOverall bit rate                 : 1 080 Kbps\nWriting application              : MEncoder SVN-r30881(20100311-gcc4.3.3)\nWriting library                  : MPlayer\n\nVideo\nID                               : 0\nFormat                           : MPEG-4 Visual\nFormat profile                   : Advanced Simple@L5\nFormat settings, BVOP            : 2\nFormat settings, QPel            : No\nFormat settings, GMC             : No warppoints\nFormat settings, Matrix          : Default (H.263)\nCodec ID                         : XVID\nCodec ID/Hint                    : XviD\nDuration                         : 1h 33mn\nBit rate                         : 940 Kbps\nWidth                            : 720 pixels\nHeight                           : 480 pixels\nDisplay aspect ratio             : 3:2\nFrame rate                       : 25.000 fps\nStandard                         : NTSC\nColor space                      : YUV\nChroma subsampling               : 4:2:0\nBit depth                        : 8 bits\nScan type                        : Progressive\nCompression mode                 : Lossy\nBits/(Pixel*Frame)               : 0.109\nStream size                      : 626 MiB (87%)\nWriting library                  : XviD 1.2.1 (UTC 2008-12-04)\n\nAudio\nID                               : 1\nFormat                           : MPEG Audio\nFormat version                   : Version 1\nFormat profile                   : Layer 3\nMode                             : Joint stereo\nMode extension                   : MS Stereo\nCodec ID                         : 55\nCodec ID/Hint                    : MP3\nDuration                         : 1h 33mn\nBit rate mode                    : Constant\nBit rate                         : 128 Kbps\nChannel(s)                       : 2 channels\nSampling rate                    : 44.1 KHz\nCompression mode                 : Lossy\nDelay relative to video          : 40ms\nStream size                      : 85.3 MiB (12%)\nAlignment                        : Aligned on interleaves\nInterleave, duration             : 26 ms (0.65 video frame)\nInterleave, preload duration     : 522 ms\nLanguage                         : Hindi","torrent":{"xt":"urn:btih:5e40f1fa28b5b29b5d52739328ae968f0ad4ca7a","amp;dn":"Doraemon+In+Nobita%5C%27s+Little+Space+War+SDTVRip+by+HarryLala.avi","amp;tr":["udp%3A%2F%2Ftracker.openbittorrent.com%3A80","udp%3A%2F%2Fopen.demonii.com%3A1337","udp%3A%2F%2Ftracker.coppersurfer.tk%3A6969","udp%3A%2F%2Fexodus.desync.com%3A6969"],"infoHash":"5e40f1fa28b5b29b5d52739328ae968f0ad4ca7a","infoHashBuffer":{"type":"Buffer","data":[94,64,241,250,40,181,178,155,93,82,115,147,40,174,150,143,10,212,202,122]},"announce":[],"urlList":[]}}